<?xml version="1.0" standalone="no"?>
<!DOCTYPE svg PUBLIC "-//W3C//DTD SVG 20010904//EN"
 "http://www.w3.org/TR/2001/REC-SVG-20010904/DTD/svg10.dtd">
<svg version="1.0" xmlns="http://www.w3.org/2000/svg"
 width="900.000000pt" height="250.000000pt" viewBox="0 0 900.000000 250.000000"
 preserveAspectRatio="xMidYMid meet">

<g transform="translate(0.000000,250.000000) scale(0.100000,-0.100000)"
fill="#721CFF" stroke="none">
<path d="M870 2015 c0 -12 15 -15 75 -15 l75 0 0 -417 c0 -259 -4 -440 -11
-480 -20 -116 -78 -168 -186 -168 -55 0 -66 3 -90 27 -23 23 -28 39 -34 98 -7
82 -26 110 -73 110 -65 0 -104 -62 -91 -141 19 -111 152 -165 348 -140 139 19
213 66 259 166 23 49 23 55 26 497 l3 447 76 3 c50 2 78 7 81 16 3 9 -47 12
-227 12 -199 0 -231 -2 -231 -15z"/>
<path d="M1650 2016 c0 -13 13 -16 65 -16 l65 0 0 -487 c0 -372 -3 -494 -13
-513 -12 -24 -50 -41 -119 -55 -16 -3 -28 -12 -28 -20 0 -13 35 -15 245 -15
203 0 245 2 245 14 0 16 -21 26 -58 26 -15 0 -41 9 -59 19 -42 26 -53 81 -53
266 l0 145 89 0 c253 0 398 57 458 178 25 51 28 67 28 162 0 95 -3 110 -28
163 -31 62 -68 93 -147 124 -39 15 -91 18 -367 21 -289 3 -323 2 -323 -12z
m536 -42 c119 -32 166 -98 172 -240 5 -119 -13 -177 -72 -232 -57 -53 -123
-73 -243 -75 l-98 -2 -3 279 c-2 217 1 281 10 288 18 11 171 0 234 -18z"/>
<path d="M2750 2015 c0 -12 14 -15 70 -15 l71 0 -3 -501 -3 -501 -33 -29 c-20
-18 -43 -29 -62 -29 -23 0 -30 -4 -30 -20 0 -19 7 -20 155 -20 148 0 155 1
155 20 0 16 -7 20 -30 20 -19 0 -42 11 -62 29 l-33 29 -3 441 c-1 259 1 441 6
441 5 0 103 -218 218 -485 148 -346 212 -485 223 -485 12 0 70 134 210 480
107 264 199 480 203 480 12 0 10 -808 -3 -853 -10 -39 -38 -58 -101 -72 -16
-3 -28 -12 -28 -20 0 -13 32 -15 216 -15 199 0 215 1 212 17 -2 11 -16 20 -38
23 -91 15 -90 6 -90 569 l0 480 57 3 c34 2 58 8 61 16 3 9 -30 12 -145 12
l-148 0 -174 -431 c-96 -236 -177 -426 -182 -422 -4 4 -82 184 -173 398 -92
215 -173 405 -181 423 l-15 32 -160 0 c-136 0 -160 -2 -160 -15z"/>
<path d="M6544 1763 c-7 -5 -23 -30 -36 -58 -30 -64 -55 -68 -133 -24 -106 60
-225 74 -337 39 -81 -25 -138 -73 -175 -148 -24 -49 -28 -69 -28 -142 0 -108
21 -167 78 -216 23 -19 61 -40 85 -47 23 -6 42 -15 42 -19 0 -4 -19 -12 -42
-18 -76 -18 -147 -58 -168 -92 -27 -45 -27 -117 1 -152 48 -61 101 -75 345
-90 227 -14 255 -23 287 -88 15 -30 16 -44 8 -75 -12 -42 -57 -91 -109 -117
-53 -27 -190 -41 -270 -29 -130 20 -176 58 -174 143 2 117 -112 138 -134 25
-16 -86 40 -160 144 -192 84 -26 335 -26 412 1 98 33 156 87 190 174 37 98 22
184 -46 249 -24 23 -60 47 -81 53 -21 6 -128 17 -238 24 -113 7 -211 18 -223
25 -19 10 -23 19 -20 49 4 49 39 68 183 97 209 43 272 71 325 145 56 79 64
207 20 315 0 0 17 -1 38 -3 49 -5 105 19 128 53 14 21 15 35 8 73 -8 43 -12
47 -39 50 -16 1 -35 -1 -41 -5z m-332 -73 c86 -24 124 -119 116 -291 -6 -112
-32 -180 -79 -204 -34 -18 -138 -20 -174 -3 -40 18 -64 68 -77 157 -8 61 -8
98 1 152 26 158 97 221 213 189z"/>
<path d="M4453 1715 c-128 -39 -212 -135 -243 -276 -19 -84 -9 -260 19 -331
31 -80 104 -157 183 -194 56 -26 73 -29 163 -29 87 0 108 4 156 27 149 69 223
200 223 398 0 211 -92 356 -258 405 -61 18 -186 18 -243 0z m244 -61 c15 -12
39 -43 53 -70 23 -45 25 -60 28 -221 6 -257 -18 -357 -97 -410 -28 -19 -47
-23 -110 -23 -143 0 -186 50 -202 236 -11 115 -4 302 13 369 14 56 50 109 89
129 50 25 187 19 226 -10z"/>
<path d="M6877 1710 c-104 -33 -157 -90 -157 -169 0 -30 6 -44 22 -55 53 -37
101 -9 124 72 30 103 55 122 157 122 110 0 137 -40 137 -198 l0 -99 -74 -7
c-281 -25 -433 -151 -395 -328 16 -74 85 -141 160 -158 91 -20 180 9 285 95
l32 26 19 -38 c57 -110 239 -110 292 -1 21 45 28 98 12 98 -5 0 -12 -11 -15
-24 -14 -56 -76 -75 -112 -35 -17 19 -19 44 -24 308 -3 199 -9 292 -17 307
-21 37 -72 73 -125 89 -74 22 -246 19 -321 -5z m301 -507 l3 -131 -38 -31
c-120 -99 -247 -91 -282 17 -17 56 -8 101 32 154 37 48 134 103 207 117 78 15
75 21 78 -126z"/>
<path d="M5508 1710 c-55 -16 -99 -53 -130 -106 -16 -30 -33 -52 -38 -49 -4 3
-11 31 -14 62 -12 101 0 93 -152 93 -126 0 -134 -1 -134 -20 0 -17 8 -19 73
-22 l72 -3 0 -315 c0 -173 -3 -327 -8 -342 -8 -31 -43 -53 -100 -63 -27 -5
-37 -12 -37 -26 0 -18 11 -19 230 -19 220 0 230 1 230 19 0 15 -10 20 -49 26
-85 12 -86 12 -89 280 -3 233 -3 234 22 284 26 51 73 94 115 104 34 8 70 -9
111 -54 42 -44 78 -51 110 -19 25 25 26 72 3 111 -33 56 -134 84 -215 59z"/>
<path d="M8025 1711 c-63 -16 -128 -66 -179 -136 -17 -24 -19 -20 -39 70 l-14
60 -124 0 c-110 0 -124 -2 -127 -17 -3 -16 5 -18 63 -18 l66 0 -3 -324 c-3
-311 -4 -326 -24 -353 -13 -18 -35 -31 -62 -37 -34 -8 -42 -14 -42 -33 l0 -23
200 0 200 0 0 25 c0 20 -7 26 -39 35 -61 16 -66 38 -66 300 0 215 1 227 23
267 59 112 227 137 279 41 16 -29 18 -65 21 -300 l3 -267 -25 -26 c-14 -14
-34 -25 -46 -25 -15 0 -20 -6 -20 -25 l0 -25 190 0 190 0 0 23 c0 18 -10 28
-41 42 -70 32 -73 45 -79 345 -5 260 -6 266 -30 308 -35 62 -93 94 -178 98
-37 2 -80 0 -97 -5z"/>
<path d="M1339 1031 c-80 -81 33 -199 116 -121 43 40 32 110 -22 138 -35 19
-63 14 -94 -17z"/>
<path d="M2395 1048 c-32 -17 -45 -39 -45 -76 0 -47 14 -69 53 -81 92 -31 155
72 88 140 -31 30 -62 36 -96 17z"/>
</g>
</svg>
