<?xml version="1.0" standalone="no"?>
<!DOCTYPE svg PUBLIC "-//W3C//DTD SVG 20010904//EN"
 "http://www.w3.org/TR/2001/REC-SVG-20010904/DTD/svg10.dtd">
<svg version="1.0" xmlns="http://www.w3.org/2000/svg"
 width="900.000000pt" height="250.000000pt" viewBox="0 0 900.000000 250.000000"
 preserveAspectRatio="xMidYMid meet">

<g transform="translate(0.000000,250.000000) scale(0.100000,-0.100000)"
fill="#721CFF" stroke="none">
<path d="M701 1879 c-130 -23 -242 -106 -270 -200 -34 -112 -23 -223 30 -303
39 -59 107 -109 267 -200 192 -109 232 -146 232 -221 0 -88 -74 -142 -159
-116 -62 18 -81 50 -81 137 l0 74 -155 0 -155 0 0 -92 c0 -107 22 -168 81
-227 153 -152 560 -145 693 11 51 59 70 124 71 243 0 90 -3 106 -29 158 -38
78 -116 141 -301 242 -180 99 -210 127 -210 196 0 45 4 54 33 80 36 32 87 38
132 16 33 -16 60 -72 60 -124 l0 -43 145 0 145 0 0 63 c0 149 -67 246 -196
287 -79 25 -247 35 -333 19z"/>
<path d="M4542 1870 c-58 -12 -140 -50 -179 -84 -75 -63 -112 -216 -79 -328
31 -108 103 -171 351 -310 151 -84 202 -151 175 -232 -17 -53 -52 -76 -117
-76 -47 0 -59 4 -84 29 -27 28 -29 34 -29 110 l0 82 -157 -3 -158 -3 2 -82 c1
-46 9 -105 17 -131 45 -135 189 -212 397 -212 165 0 271 32 344 105 64 64 79
112 79 245 1 131 -9 162 -70 230 -45 50 -116 99 -239 165 -194 104 -232 141
-222 217 7 49 30 75 78 88 29 8 46 7 72 -4 49 -20 67 -51 67 -113 l0 -53 146
0 146 0 -3 83 c-6 138 -69 224 -192 263 -60 19 -278 28 -345 14z"/>
<path d="M8112 1865 c-134 -38 -203 -101 -237 -218 -14 -47 -16 -108 -13 -409
l3 -354 30 -59 c36 -70 101 -124 179 -149 186 -61 417 -31 524 67 83 78 87 90
90 355 l3 232 -205 0 -206 0 0 -85 0 -85 60 0 60 0 0 -110 c0 -63 -5 -120 -12
-135 -16 -36 -57 -55 -117 -55 -42 0 -56 5 -83 29 l-33 29 -3 319 c-2 213 0
330 8 356 14 49 59 77 120 77 78 0 120 -49 120 -140 l0 -50 145 0 145 0 0 73
c0 102 -22 160 -85 223 -76 77 -136 96 -305 101 -97 2 -150 -1 -188 -12z"/>
<path d="M1662 1793 c-6 -32 -45 -242 -87 -468 -42 -225 -86 -465 -99 -532
l-23 -123 158 0 c156 0 159 0 164 23 2 12 37 236 76 497 92 615 84 570 92 540
3 -14 38 -245 77 -515 39 -269 73 -502 76 -517 l6 -28 157 0 157 0 -83 448
c-45 246 -94 511 -109 590 l-26 142 -263 0 -262 0 -11 -57z"/>
<path d="M2677 1638 c-4 -117 -10 -383 -14 -590 l-6 -378 146 0 147 0 0 248
c0 137 3 379 7 538 l6 289 47 -250 c26 -137 71 -379 100 -538 l54 -288 150 3
150 3 98 524 c53 287 99 528 102 535 2 6 5 -149 5 -345 1 -196 4 -438 8 -537
l6 -182 145 0 145 0 -6 233 c-4 127 -10 393 -13 590 l-7 357 -242 0 -242 0
-26 -167 c-84 -527 -121 -743 -124 -739 -3 2 -18 87 -34 188 -16 100 -43 269
-60 373 -17 105 -36 224 -42 265 l-12 75 -241 3 -241 2 -6 -212z"/>
<path d="M5392 1358 l3 -493 28 -58 c35 -71 93 -117 185 -149 95 -32 285 -33
388 0 89 27 160 87 195 164 l24 53 3 488 3 487 -151 0 -150 0 0 -462 c0 -441
-1 -465 -20 -495 -38 -63 -142 -66 -190 -6 -19 25 -20 40 -20 494 l0 469 -150
0 -151 0 3 -492z"/>
<path d="M6550 1265 l0 -585 145 0 146 0 -6 233 c-14 610 -15 741 -11 736 5
-5 296 -952 296 -963 0 -4 95 -6 210 -6 l210 0 0 585 0 585 -146 0 -145 0 5
-207 c12 -454 17 -737 13 -733 -3 3 -64 208 -137 455 -72 248 -133 458 -136
468 -5 15 -24 17 -225 17 l-219 0 0 -585z"/>
</g>
</svg>
