<svg width="64" height="66" viewBox="0 0 64 66" fill="none" xmlns="http://www.w3.org/2000/svg">
<path fill-rule="evenodd" clip-rule="evenodd" d="M63.5 25.0001C63 28.5001 58 30.5 56 30.5C55.9573 30.3803 55.9148 30.2612 55.8725 30.1427C55.4147 28.8608 54.9814 27.6471 54.5586 26.5001C54.8505 26.426 55.2568 26.3873 55.7122 26.3439C57.3057 26.192 59.5 25.9829 59.5 24.0001C59.5 19.5001 49.5 4.00006 32.5 4.00006C15.5 4.00006 3.73162 19.0001 4.00004 33.0001C4.26846 47.0001 15.2982 62.0001 33.5 62.0001C51.7018 62.0001 59.5 45.5001 59.5 42.0001C59.5 40.1636 54.9314 39.1001 54.2952 39.5001C54.8131 38.0841 55.3465 36.7254 56 35.5001C58.5 35.5001 63.5 37.4504 63.5 40C63.5 50 52.5 65.5001 32 65.5001C11.5 65.5001 0 50.0001 0 33.0001C0 16 13.5 6.35984e-05 32.5 1.73751e-10C51.5 -6.3598e-05 64.5774 17.459 63.5 25.0001ZM56 35.5001H49.9455C48.4025 35.5001 46.9739 36.2423 45.8662 37.3164C38.111 44.837 23 46.474 23 33.0001C23 18.2608 39.3583 21.0768 45.7008 27.9045C47.019 29.3235 48.7363 30.5 50.6731 30.5H56V35.5001ZM54.2952 39.5001H50.0908C48.4662 39.5001 46.9779 40.3266 45.7977 41.443C38.2237 48.6074 20 51.2325 20 33.0001C20 15.1478 38.6907 17.6986 45.6706 24.2352C46.9891 25.4699 48.6179 26.5001 50.4243 26.5001H54.5586C49 13.0001 45 10.5001 32.5 10.5001C20 10.5001 16.7807 14.5001 13 21.0001C10.8808 24.6436 9.00004 28.8573 9.00004 33.0001C9.00004 37.3742 10.7576 40.7223 13 44.5001C13.2066 44.8481 13.4085 45.1945 13.6087 45.5382C16.7004 50.8449 19.4124 55.5001 33.5 55.5001C47.5324 55.5001 49.7503 50.2492 53.4945 41.3848C53.7527 40.7735 54.0181 40.1451 54.2952 39.5001Z" fill="white"/>
</svg>
