<svg width="548" height="229" viewBox="0 0 548 229" fill="none" xmlns="http://www.w3.org/2000/svg">
<g clip-path="url(#clip0_47_126)">
<g filter="url(#filter0_d_47_126)">
<rect x="4" y="4" width="524" height="35" rx="5" fill="white"/>
</g>
<rect x="328.5" y="14.5" width="36" height="14" rx="7" fill="#FBF8FF" stroke="#C5C5C5"/>
<rect x="374.5" y="14.5" width="36" height="14" rx="7" fill="#FBF8FF" stroke="#C5C5C5"/>
<rect x="477" y="14" width="37" height="15" rx="7.5" fill="#721CFF"/>
<g filter="url(#filter1_d_47_126)">
<rect x="4" y="47" width="524" height="34" rx="5" fill="white"/>
</g>
<g filter="url(#filter2_d_47_126)">
<rect x="4" y="90" width="524" height="34" rx="5" fill="white"/>
</g>
<g filter="url(#filter3_d_47_126)">
<rect x="4" y="133" width="524" height="34" rx="5" fill="white" fill-opacity="0.5" shape-rendering="crispEdges"/>
</g>
<g filter="url(#filter4_d_47_126)">
<rect x="4" y="175" width="524" height="35" rx="5" fill="white" fill-opacity="0.3" shape-rendering="crispEdges"/>
</g>
<rect x="12" y="14" width="154" height="15" rx="5" fill="#C5C5C5"/>
<rect x="259" y="14" width="57" height="15" rx="7.5" fill="#D9D9D9"/>
<rect x="259" y="56" width="57" height="15" rx="7.5" fill="#D9D9D9"/>
<rect x="259" y="99" width="57" height="15" rx="7.5" fill="#D9D9D9"/>
<rect x="259" y="142" width="57" height="15" rx="7.5" fill="#D9D9D9" fill-opacity="0.5"/>
<rect x="259" y="185" width="57" height="15" rx="7.5" fill="#D9D9D9" fill-opacity="0.3"/>
<rect x="12" y="56" width="190" height="15" rx="5" fill="#C5C5C5"/>
<rect x="12" y="99" width="91" height="15" rx="5" fill="#C5C5C5" fill-opacity="0.7"/>
<rect x="12" y="142" width="132" height="15" rx="5" fill="#C5C5C5" fill-opacity="0.5"/>
<rect x="12" y="185" width="175" height="15" rx="5" fill="#C5C5C5" fill-opacity="0.3"/>
<rect x="328.5" y="56.5" width="36" height="14" rx="7" fill="#FBF8FF" stroke="#C5C5C5"/>
<rect x="374.5" y="56.5" width="36" height="14" rx="7" fill="#FBF8FF" stroke="#C5C5C5"/>
<rect x="328" y="99" width="37" height="15" rx="7.5" fill="#FBF8FF" fill-opacity="0.7"/>
<rect x="328.5" y="99.5" width="36" height="14" rx="7" stroke="#C5C5C5" stroke-opacity="0.7"/>
<rect x="374" y="99" width="37" height="15" rx="7.5" fill="#FBF8FF" fill-opacity="0.7"/>
<rect x="374.5" y="99.5" width="36" height="14" rx="7" stroke="#C5C5C5" stroke-opacity="0.7"/>
<rect x="328" y="142" width="37" height="15" rx="7.5" fill="#FBF8FF" fill-opacity="0.5"/>
<rect x="328.5" y="142.5" width="36" height="14" rx="7" stroke="#C5C5C5" stroke-opacity="0.5"/>
<rect x="374" y="142" width="37" height="15" rx="7.5" fill="#FBF8FF" fill-opacity="0.5"/>
<rect x="374.5" y="142.5" width="36" height="14" rx="7" stroke="#C5C5C5" stroke-opacity="0.5"/>
<rect x="328" y="185" width="37" height="15" rx="7.5" fill="#FBF8FF" fill-opacity="0.3"/>
<rect x="328.5" y="185.5" width="36" height="14" rx="7" stroke="#C5C5C5" stroke-opacity="0.3"/>
<rect x="374" y="185" width="37" height="15" rx="7.5" fill="#FBF8FF" fill-opacity="0.3"/>
<rect x="374.5" y="185.5" width="36" height="14" rx="7" stroke="#C5C5C5" stroke-opacity="0.3"/>
<rect x="477" y="56" width="37" height="15" rx="7.5" fill="#721CFF"/>
<rect x="477" y="99" width="37" height="15" rx="7.5" fill="#721CFF" fill-opacity="0.7"/>
<rect x="477" y="142" width="37" height="15" rx="7.5" fill="#721CFF" fill-opacity="0.5"/>
<rect x="477" y="185" width="37" height="15" rx="7.5" fill="#721CFF" fill-opacity="0.3"/>
</g>
<defs>
<filter id="filter0_d_47_126" x="-1" y="-1" width="544" height="55" filterUnits="userSpaceOnUse" color-interpolation-filters="sRGB">
<feFlood flood-opacity="0" result="BackgroundImageFix"/>
<feColorMatrix in="SourceAlpha" type="matrix" values="0 0 0 0 0 0 0 0 0 0 0 0 0 0 0 0 0 0 127 0" result="hardAlpha"/>
<feOffset dx="5" dy="5"/>
<feGaussianBlur stdDeviation="5"/>
<feComposite in2="hardAlpha" operator="out"/>
<feColorMatrix type="matrix" values="0 0 0 0 0 0 0 0 0 0 0 0 0 0 0 0 0 0 0.25 0"/>
<feBlend mode="normal" in2="BackgroundImageFix" result="effect1_dropShadow_47_126"/>
<feBlend mode="normal" in="SourceGraphic" in2="effect1_dropShadow_47_126" result="shape"/>
</filter>
<filter id="filter1_d_47_126" x="-1" y="42" width="544" height="54" filterUnits="userSpaceOnUse" color-interpolation-filters="sRGB">
<feFlood flood-opacity="0" result="BackgroundImageFix"/>
<feColorMatrix in="SourceAlpha" type="matrix" values="0 0 0 0 0 0 0 0 0 0 0 0 0 0 0 0 0 0 127 0" result="hardAlpha"/>
<feOffset dx="5" dy="5"/>
<feGaussianBlur stdDeviation="5"/>
<feComposite in2="hardAlpha" operator="out"/>
<feColorMatrix type="matrix" values="0 0 0 0 0 0 0 0 0 0 0 0 0 0 0 0 0 0 0.25 0"/>
<feBlend mode="normal" in2="BackgroundImageFix" result="effect1_dropShadow_47_126"/>
<feBlend mode="normal" in="SourceGraphic" in2="effect1_dropShadow_47_126" result="shape"/>
</filter>
<filter id="filter2_d_47_126" x="-1" y="85" width="544" height="54" filterUnits="userSpaceOnUse" color-interpolation-filters="sRGB">
<feFlood flood-opacity="0" result="BackgroundImageFix"/>
<feColorMatrix in="SourceAlpha" type="matrix" values="0 0 0 0 0 0 0 0 0 0 0 0 0 0 0 0 0 0 127 0" result="hardAlpha"/>
<feOffset dx="5" dy="5"/>
<feGaussianBlur stdDeviation="5"/>
<feComposite in2="hardAlpha" operator="out"/>
<feColorMatrix type="matrix" values="0 0 0 0 0 0 0 0 0 0 0 0 0 0 0 0 0 0 0.25 0"/>
<feBlend mode="normal" in2="BackgroundImageFix" result="effect1_dropShadow_47_126"/>
<feBlend mode="normal" in="SourceGraphic" in2="effect1_dropShadow_47_126" result="shape"/>
</filter>
<filter id="filter3_d_47_126" x="-1" y="128" width="544" height="54" filterUnits="userSpaceOnUse" color-interpolation-filters="sRGB">
<feFlood flood-opacity="0" result="BackgroundImageFix"/>
<feColorMatrix in="SourceAlpha" type="matrix" values="0 0 0 0 0 0 0 0 0 0 0 0 0 0 0 0 0 0 127 0" result="hardAlpha"/>
<feOffset dx="5" dy="5"/>
<feGaussianBlur stdDeviation="5"/>
<feComposite in2="hardAlpha" operator="out"/>
<feColorMatrix type="matrix" values="0 0 0 0 0 0 0 0 0 0 0 0 0 0 0 0 0 0 0.2 0"/>
<feBlend mode="normal" in2="BackgroundImageFix" result="effect1_dropShadow_47_126"/>
<feBlend mode="normal" in="SourceGraphic" in2="effect1_dropShadow_47_126" result="shape"/>
</filter>
<filter id="filter4_d_47_126" x="-1" y="170" width="544" height="55" filterUnits="userSpaceOnUse" color-interpolation-filters="sRGB">
<feFlood flood-opacity="0" result="BackgroundImageFix"/>
<feColorMatrix in="SourceAlpha" type="matrix" values="0 0 0 0 0 0 0 0 0 0 0 0 0 0 0 0 0 0 127 0" result="hardAlpha"/>
<feOffset dx="5" dy="5"/>
<feGaussianBlur stdDeviation="5"/>
<feComposite in2="hardAlpha" operator="out"/>
<feColorMatrix type="matrix" values="0 0 0 0 0 0 0 0 0 0 0 0 0 0 0 0 0 0 0.1 0"/>
<feBlend mode="normal" in2="BackgroundImageFix" result="effect1_dropShadow_47_126"/>
<feBlend mode="normal" in="SourceGraphic" in2="effect1_dropShadow_47_126" result="shape"/>
</filter>
<clipPath id="clip0_47_126">
<rect width="548" height="229" fill="white"/>
</clipPath>
</defs>
</svg>
